<svg xmlns="http://www.w3.org/2000/svg" xmlns:xlink="http://www.w3.org/1999/xlink" xmlns:lucid="lucid" width="1666.72" height="1205.27"><g transform="translate(-53.27654321370028 -75.76445661035119)" lucid:page-tab-id="hETTN3pulJFH"><path d="M0 0h1870.87v1322.83H0z" fill="#fff"/><path d="M921 275.12c0 .55-.45 1-1 1s-1-.45-1-1 .45-1 1-1 1 .45 1 1zm0 8.02c0 .55-.45 1-1 1s-1-.45-1-1c0-.56.45-1 1-1s1 .44 1 1zm0 8c0 .56-.45 1-1 1s-1-.44-1-1c0-.54.45-1 1-1s1 .46 1 1zm0 8.03c0 .55-.45 1-1 1s-1-.45-1-1 .45-1 1-1 1 .45 1 1zm0 8c0 .57-.45 1-1 1s-1-.43-1-1c0-.54.45-1 1-1s1 .46 1 1zm0 8.03c0 .55-.45 1-1 1s-1-.45-1-1 .45-1 1-1 1 .45 1 1zm0 8c0 .57-.45 1-1 1s-1-.43-1-1c0-.54.45-1 1-1s1 .46 1 1zm0 8.03c0 .55-.45 1-1 1s-1-.45-1-1 .45-1 1-1 1 .45 1 1zm0 8c0 .57-.45 1-1 1s-1-.43-1-1c0-.54.45-1 1-1s1 .46 1 1zm0 8.03c0 .55-.45 1-1 1s-1-.45-1-1 .45-1 1-1 1 .45 1 1zm0 8.02c0 .55-.45 1-1 1s-1-.45-1-1c0-.56.45-1 1-1s1 .44 1 1zm0 8c0 .56-.45 1-1 1s-1-.44-1-1c0-.54.45-1 1-1s1 .46 1 1zm0 8.03c0 .56-.45 1-1 1s-1-.44-1-1c0-.55.45-1 1-1s1 .45 1 1zm0 8.02c0 .55-.45 1-1 1s-1-.45-1-1 .45-1 1-1 1 .45 1 1zm0 8.02c0 .55-.45 1-1 1s-1-.45-1-1c0-.56.45-1 1-1s1 .44 1 1zm0 8c0 .56-.45 1-1 1s-1-.44-1-1c0-.54.45-1 1-1s1 .46 1 1zm0 8.03c0 .55-.45 1-1 1s-1-.45-1-1 .45-1 1-1 1 .45 1 1zm0 8c0 .57-.45 1-1 1s-1-.43-1-1c0-.54.45-1 1-1s1 .46 1 1zm0 8.03c0 .55-.45 1-1 1s-1-.45-1-1 .45-1 1-1 1 .45 1 1zm0 8c0 .57-.45 1-1 1s-1-.43-1-1c0-.54.45-1 1-1s1 .46 1 1zm0 8.03c0 .55-.45 1-1 1s-1-.45-1-1 .45-1 1-1 1 .45 1 1zm0 8.02c0 .55-.45 1-1 1s-1-.45-1-1c0-.56.45-1 1-1s1 .44 1 1zm0 8c0 .56-.45 1-1 1s-1-.44-1-1c0-.54.45-1 1-1s1 .46 1 1zm0 8.03c0 .55-.45 1-1 1s-1-.45-1-1c0-.56.45-1 1-1s1 .44 1 1zm0 8c0 .56-.45 1-1 1s-1-.44-1-1c0-.54.45-1 1-1s1 .46 1 1zm0 8.03c0 .56-.45 1-1 1s-1-.44-1-1c0-.55.45-1 1-1s1 .45 1 1zm0 8.02c0 .55-.45 1-1 1s-1-.45-1-1 .45-1 1-1 1 .45 1 1zm0 8.02c0 .55-.45 1-1 1s-1-.45-1-1 .45-1 1-1 1 .45 1 1zm0 8c0 .57-.45 1-1 1s-1-.43-1-1c0-.54.45-1 1-1s1 .46 1 1zm0 8.03c0 .55-.45 1-1 1s-1-.45-1-1 .45-1 1-1 1 .45 1 1zm0 8c0 .57-.45 1-1 1s-1-.43-1-1c0-.54.45-1 1-1s1 .46 1 1zm0 8.03c0 .55-.45 1-1 1s-1-.45-1-1 .45-1 1-1 1 .45 1 1zm0 8c0 .57-.45 1-1 1s-1-.43-1-1c0-.54.45-1 1-1s1 .46 1 1zm0 8.03c0 .55-.45 1-1 1s-1-.45-1-1 .45-1 1-1 1 .45 1 1zm0 8.02c0 .55-.45 1-1 1s-1-.45-1-1c0-.56.45-1 1-1s1 .44 1 1zm0 8c0 .56-.45 1-1 1s-1-.44-1-1c0-.54.45-1 1-1s1 .46 1 1zm0 8.03c0 .55-.45 1-1 1s-1-.45-1-1c0-.56.45-1 1-1s1 .44 1 1zm0 8c0 .56-.45 1-1 1s-1-.44-1-1c0-.54.45-1 1-1s1 .46 1 1zm0 8.03c0 .56-.45 1-1 1s-1-.44-1-1c0-.54.45-1 1-1s1 .46 1 1zm0 8.02c0 .56-.45 1-1 1s-1-.44-1-1c0-.55.45-1 1-1s1 .45 1 1zm0 8.02c0 .55-.45 1-1 1s-1-.45-1-1 .45-1 1-1 1 .45 1 1zm0 8c0 .57-.45 1-1 1s-1-.43-1-1c0-.54.45-1 1-1s1 .46 1 1zm0 8.03c0 .55-.45 1-1 1s-1-.45-1-1 .45-1 1-1 1 .45 1 1zm0 8c0 .57-.45 1-1 1s-1-.43-1-1c0-.54.45-1 1-1s1 .46 1 1zm0 8.03c0 .55-.45 1-1 1s-1-.45-1-1 .45-1 1-1 1 .45 1 1zm0 8.02c0 .55-.45 1-1 1s-1-.45-1-1c0-.56.45-1 1-1s1 .44 1 1zm0 8c0 .56-.45 1-1 1s-1-.44-1-1c0-.54.45-1 1-1s1 .46 1 1zm0 8.03c0 .55-.45 1-1 1s-1-.45-1-1c0-.56.45-1 1-1s1 .44 1 1zm0 8c0 .56-.45 1-1 1s-1-.44-1-1c0-.54.45-1 1-1s1 .46 1 1zm0 8.03c0 .55-.45 1-1 1s-1-.45-1-1c0-.56.45-1 1-1s1 .44 1 1zm0 8c0 .56-.45 1-1 1s-1-.44-1-1c0-.54.45-1 1-1s1 .46 1 1zm0 8.03c0 .56-.45 1-1 1s-1-.44-1-1c0-.54.45-1 1-1s1 .46 1 1zm0 8.02c0 .56-.45 1-1 1s-1-.44-1-1c0-.55.45-1 1-1s1 .45 1 1zm0 8.02c0 .55-.45 1-1 1s-1-.45-1-1 .45-1 1-1 1 .45 1 1zm0 8c0 .57-.45 1-1 1s-1-.43-1-1c0-.54.45-1 1-1s1 .46 1 1zm0 8.03c0 .55-.45 1-1 1s-1-.45-1-1 .45-1 1-1 1 .45 1 1zm0 8c0 .57-.45 1-1 1s-1-.43-1-1c0-.54.45-1 1-1s1 .46 1 1zm0 8.03c0 .55-.45 1-1 1s-1-.45-1-1 .45-1 1-1 1 .45 1 1zm0 8.02c0 .55-.45 1-1 1s-1-.45-1-1c0-.56.45-1 1-1s1 .44 1 1zm0 8c0 .56-.45 1-1 1s-1-.44-1-1c0-.54.45-1 1-1s1 .46 1 1zm0 8.03c0 .55-.45 1-1 1s-1-.45-1-1c0-.56.45-1 1-1s1 .44 1 1zm0 8c0 .56-.45 1-1 1s-1-.44-1-1c0-.54.45-1 1-1s1 .46 1 1zm0 8.03c0 .55-.45 1-1 1s-1-.45-1-1 .45-1 1-1 1 .45 1 1zm0 8c0 .57-.45 1-1 1s-1-.43-1-1c0-.54.45-1 1-1s1 .46 1 1zm0 8.03c0 .56-.45 1-1 1s-1-.44-1-1c0-.54.45-1 1-1s1 .46 1 1zm0 8.02c0 .56-.45 1-1 1s-1-.44-1-1c0-.55.45-1 1-1s1 .45 1 1zm0 8.02c0 .55-.45 1-1 1s-1-.45-1-1 .45-1 1-1 1 .45 1 1zm0 8c0 .57-.45 1-1 1s-1-.43-1-1c0-.54.45-1 1-1s1 .46 1 1zm0 8.03c0 .55-.45 1-1 1s-1-.45-1-1 .45-1 1-1 1 .45 1 1zm0 8.02c0 .54-.45 1-1 1s-1-.46-1-1c0-.57.45-1 1-1s1 .43 1 1zm0 8c0 .55-.45 1-1 1s-1-.45-1-1 .45-1 1-1 1 .45 1 1zm0 8.02c0 .55-.45 1-1 1s-1-.45-1-1c0-.56.45-1 1-1s1 .44 1 1zm0 8c0 .56-.45 1-1 1s-1-.44-1-1c0-.54.45-1 1-1s1 .46 1 1zm0 8.03c0 .55-.45 1-1 1s-1-.45-1-1c0-.56.45-1 1-1s1 .44 1 1zm0 8c0 .56-.45 1-1 1s-1-.44-1-1c0-.54.45-1 1-1s1 .46 1 1zm0 8.03c0 .55-.45 1-1 1s-1-.45-1-1 .45-1 1-1 1 .45 1 1zm0 8c0 .57-.45 1-1 1s-1-.43-1-1c0-.54.45-1 1-1s1 .46 1 1zm0 8.03c0 .56-.45 1-1 1s-1-.44-1-1c0-.54.45-1 1-1s1 .46 1 1zm0 8.02c0 .56-.45 1-1 1s-1-.44-1-1c0-.55.45-1 1-1s1 .45 1 1zm0 8.02c0 .55-.45 1-1 1s-1-.45-1-1 .45-1 1-1 1 .45 1 1zm0 8c0 .57-.45 1-1 1s-1-.43-1-1c0-.54.45-1 1-1s1 .46 1 1zm0 8.03c0 .55-.45 1-1 1s-1-.45-1-1 .45-1 1-1 1 .45 1 1zm0 8.02c0 .54-.45 1-1 1s-1-.46-1-1c0-.57.45-1 1-1s1 .43 1 1zm0 8c0 .55-.45 1-1 1s-1-.45-1-1 .45-1 1-1 1 .45 1 1zm0 8.02c0 .55-.45 1-1 1s-1-.45-1-1c0-.56.45-1 1-1s1 .44 1 1zm0 8c0 .56-.45 1-1 1s-1-.44-1-1c0-.54.45-1 1-1s1 .46 1 1zm0 8.03c0 .55-.45 1-1 1s-1-.45-1-1 .45-1 1-1 1 .45 1 1zm0 8c0 .57-.45 1-1 1s-1-.43-1-1c0-.54.45-1 1-1s1 .46 1 1zm0 8.03c0 .55-.45 1-1 1s-1-.45-1-1 .45-1 1-1 1 .45 1 1zm0 8c0 .57-.45 1-1 1s-1-.43-1-1c0-.54.45-1 1-1s1 .46 1 1zm0 8.03c0 .56-.45 1-1 1s-1-.44-1-1c0-.54.45-1 1-1s1 .46 1 1zm0 8.02c0 .56-.45 1-1 1s-1-.44-1-1c0-.55.45-1 1-1s1 .45 1 1zm0 8.02c0 .55-.45 1-1 1s-1-.45-1-1 .45-1 1-1 1 .45 1 1zm0 8.02c0 .55-.45 1-1 1s-1-.45-1-1c0-.56.45-1 1-1s1 .44 1 1zm0 8c0 .56-.45 1-1 1s-1-.44-1-1c0-.54.45-1 1-1s1 .46 1 1zm0 8.03c0 .54-.45 1-1 1s-1-.46-1-1c0-.57.45-1 1-1s1 .43 1 1zm0 8c0 .55-.45 1-1 1s-1-.45-1-1 .45-1 1-1 1 .45 1 1zm0 8.02c0 .55-.45 1-1 1s-1-.45-1-1c0-.56.45-1 1-1s1 .44 1 1zm0 8c0 .56-.45 1-1 1s-1-.44-1-1c0-.54.45-1 1-1s1 .46 1 1zm0 8.03c0 .55-.45 1-1 1s-1-.45-1-1 .45-1 1-1 1 .45 1 1zm0 8c0 .57-.45 1-1 1s-1-.43-1-1c0-.54.45-1 1-1s1 .46 1 1zm0 8.03c0 .55-.45 1-1 1s-1-.45-1-1 .45-1 1-1 1 .45 1 1zm0 8c0 .57-.45 1-1 1s-1-.43-1-1c0-.54.45-1 1-1s1 .46 1 1zm0 8.03c0 .56-.45 1-1 1s-1-.44-1-1c0-.54.45-1 1-1s1 .46 1 1zm0 8.03c0 .55-.45 1-1 1s-1-.45-1-1c0-.56.45-1 1-1s1 .44 1 1zm0 8c0 .56-.45 1-1 1s-1-.44-1-1c0-.54.45-1 1-1s1 .46 1 1zm0 8.03c0 .55-.45 1-1 1s-1-.45-1-1c0-.56.45-1 1-1s1 .44 1 1zm0 8c0 .56-.45 1-1 1s-1-.44-1-1c0-.54.45-1 1-1s1 .46 1 1zm0 8.03c0 .54-.45 1-1 1s-1-.46-1-1c0-.57.45-1 1-1s1 .43 1 1zm0 8c0 .55-.45 1-1 1s-1-.45-1-1 .45-1 1-1 1 .45 1 1zm0 8.02c0 .55-.45 1-1 1s-1-.45-1-1 .45-1 1-1 1 .45 1 1zm0 8c0 .57-.45 1-1 1s-1-.43-1-1c0-.54.45-1 1-1s1 .46 1 1zm0 8.03c0 .55-.45 1-1 1s-1-.45-1-1 .45-1 1-1 1 .45 1 1zm0 8c0 .57-.45 1-1 1s-1-.43-1-1c0-.54.45-1 1-1s1 .46 1 1zm0 8.03c0 .55-.45 1-1 1s-1-.45-1-1 .45-1 1-1 1 .45 1 1zm0 8c0 .57-.45 1-1 1s-1-.43-1-1c0-.54.45-1 1-1s1 .46 1 1zm0 8.03c0 .56-.45 1-1 1s-1-.44-1-1c0-.54.45-1 1-1s1 .46 1 1zm0 8.03c0 .55-.45 1-1 1s-1-.45-1-1c0-.56.45-1 1-1s1 .44 1 1zm0 8c0 .56-.45 1-1 1s-1-.44-1-1c0-.54.45-1 1-1s1 .46 1 1zm0 8.03c0 .55-.45 1-1 1s-1-.45-1-1c0-.56.45-1 1-1s1 .44 1 1zm0 8c0 .56-.45 1-1 1s-1-.44-1-1c0-.54.45-1 1-1s1 .46 1 1zm0 8.03c0 .54-.45 1-1 1s-1-.46-1-1c0-.57.45-1 1-1s1 .43 1 1zm0 8c0 .55-.45 1-1 1s-1-.45-1-1 .45-1 1-1 1 .45 1 1zm0 8.02c0 .55-.45 1-1 1s-1-.45-1-1 .45-1 1-1 1 .45 1 1z" fill="#5e5e5e"/><path d="M920 275.15v-1.03M920 1269v1.03" stroke="#5e5e5e" stroke-width="2" fill="none"/><path d="M421 275.12c0 .55-.45 1-1 1s-1-.45-1-1 .45-1 1-1 1 .45 1 1zm0 8c0 .55-.45 1-1 1s-1-.45-1-1c0-.56.45-1 1-1s1 .44 1 1zm0 8c0 .54-.45 1-1 1s-1-.46-1-1c0-.56.45-1 1-1s1 .44 1 1zm0 7.98c0 .56-.45 1-1 1s-1-.44-1-1c0-.55.45-1 1-1s1 .45 1 1zm0 8c0 .55-.45 1-1 1s-1-.45-1-1c0-.56.45-1 1-1s1 .44 1 1zm0 8c0 .54-.45 1-1 1s-1-.46-1-1c0-.56.45-1 1-1s1 .44 1 1zm0 8c0 .54-.45 1-1 1s-1-.46-1-1c0-.57.45-1 1-1s1 .43 1 1zm0 7.98c0 .55-.45 1-1 1s-1-.45-1-1 .45-1 1-1 1 .45 1 1zm0 8c0 .55-.45 1-1 1s-1-.45-1-1c0-.56.45-1 1-1s1 .44 1 1zm0 8c0 .54-.45 1-1 1s-1-.46-1-1c0-.57.45-1 1-1s1 .43 1 1zm0 7.98c0 .55-.45 1-1 1s-1-.45-1-1 .45-1 1-1 1 .45 1 1zm0 8c0 .55-.45 1-1 1s-1-.45-1-1c0-.56.45-1 1-1s1 .44 1 1zm0 8c0 .54-.45 1-1 1s-1-.46-1-1c0-.56.45-1 1-1s1 .44 1 1zm0 7.98c0 .56-.45 1-1 1s-1-.44-1-1c0-.55.45-1 1-1s1 .45 1 1zm0 8c0 .55-.45 1-1 1s-1-.45-1-1c0-.56.45-1 1-1s1 .44 1 1zm0 8c0 .54-.45 1-1 1s-1-.46-1-1c0-.56.45-1 1-1s1 .44 1 1zm0 8c0 .54-.45 1-1 1s-1-.46-1-1c0-.57.45-1 1-1s1 .43 1 1zm0 7.98c0 .55-.45 1-1 1s-1-.45-1-1 .45-1 1-1 1 .45 1 1zm0 8c0 .55-.45 1-1 1s-1-.45-1-1c0-.56.45-1 1-1s1 .44 1 1zm0 8c0 .54-.45 1-1 1s-1-.46-1-1c0-.57.45-1 1-1s1 .43 1 1zm0 7.98c0 .55-.45 1-1 1s-1-.45-1-1 .45-1 1-1 1 .45 1 1zm0 8c0 .55-.45 1-1 1s-1-.45-1-1c0-.56.45-1 1-1s1 .44 1 1zm0 8c0 .54-.45 1-1 1s-1-.46-1-1c0-.56.45-1 1-1s1 .44 1 1zm0 7.98c0 .56-.45 1-1 1s-1-.44-1-1c0-.55.45-1 1-1s1 .45 1 1zm0 8c0 .55-.45 1-1 1s-1-.45-1-1c0-.56.45-1 1-1s1 .44 1 1zm0 8c0 .54-.45 1-1 1s-1-.46-1-1c0-.56.45-1 1-1s1 .44 1 1zm0 7.98c0 .56-.45 1-1 1s-1-.44-1-1c0-.55.45-1 1-1s1 .45 1 1zm0 8c0 .55-.45 1-1 1s-1-.45-1-1 .45-1 1-1 1 .45 1 1zm0 8c0 .55-.45 1-1 1s-1-.45-1-1c0-.56.45-1 1-1s1 .44 1 1zm0 8c0 .54-.45 1-1 1s-1-.46-1-1c0-.57.45-1 1-1s1 .43 1 1zm0 7.98c0 .55-.45 1-1 1s-1-.45-1-1 .45-1 1-1 1 .45 1 1zm0 8c0 .55-.45 1-1 1s-1-.45-1-1c0-.56.45-1 1-1s1 .44 1 1zm0 8c0 .54-.45 1-1 1s-1-.46-1-1c0-.56.45-1 1-1s1 .44 1 1zm0 7.98c0 .55-.45 1-1 1s-1-.45-1-1 .45-1 1-1 1 .45 1 1zm0 8c0 .55-.45 1-1 1s-1-.45-1-1c0-.56.45-1 1-1s1 .44 1 1zm0 8c0 .54-.45 1-1 1s-1-.46-1-1c0-.56.45-1 1-1s1 .44 1 1zm0 7.98c0 .56-.45 1-1 1s-1-.44-1-1c0-.55.45-1 1-1s1 .45 1 1zm0 8c0 .55-.45 1-1 1s-1-.45-1-1 .45-1 1-1 1 .45 1 1zm0 8c0 .54-.45 1-1 1s-1-.46-1-1c0-.56.45-1 1-1s1 .44 1 1zm0 8c0 .54-.45 1-1 1s-1-.46-1-1c0-.57.45-1 1-1s1 .43 1 1zm0 7.98c0 .55-.45 1-1 1s-1-.45-1-1 .45-1 1-1 1 .45 1 1zm0 8c0 .55-.45 1-1 1s-1-.45-1-1c0-.56.45-1 1-1s1 .44 1 1zm0 8c0 .54-.45 1-1 1s-1-.46-1-1c0-.56.45-1 1-1s1 .44 1 1zm0 7.98c0 .55-.45 1-1 1s-1-.45-1-1 .45-1 1-1 1 .45 1 1zm0 8c0 .55-.45 1-1 1s-1-.45-1-1c0-.56.45-1 1-1s1 .44 1 1zm0 8c0 .54-.45 1-1 1s-1-.46-1-1c0-.56.45-1 1-1s1 .44 1 1zm0 7.98c0 .56-.45 1-1 1s-1-.44-1-1c0-.55.45-1 1-1s1 .45 1 1zm0 8c0 .55-.45 1-1 1s-1-.45-1-1 .45-1 1-1 1 .45 1 1zm0 8c0 .54-.45 1-1 1s-1-.46-1-1c0-.56.45-1 1-1s1 .44 1 1zm0 8c0 .54-.45 1-1 1s-1-.46-1-1c0-.57.45-1 1-1s1 .43 1 1zm0 7.98c0 .55-.45 1-1 1s-1-.45-1-1 .45-1 1-1 1 .45 1 1zm0 8c0 .55-.45 1-1 1s-1-.45-1-1c0-.56.45-1 1-1s1 .44 1 1zm0 8c0 .54-.45 1-1 1s-1-.46-1-1c0-.56.45-1 1-1s1 .44 1 1zm0 7.98c0 .55-.45 1-1 1s-1-.45-1-1 .45-1 1-1 1 .45 1 1zm0 8c0 .55-.45 1-1 1s-1-.45-1-1c0-.56.45-1 1-1s1 .44 1 1zm0 8c0 .54-.45 1-1 1s-1-.46-1-1c0-.56.45-1 1-1s1 .44 1 1zm0 7.98c0 .56-.45 1-1 1s-1-.44-1-1c0-.55.45-1 1-1s1 .45 1 1zm0 8c0 .55-.45 1-1 1s-1-.45-1-1 .45-1 1-1 1 .45 1 1zm0 8c0 .54-.45 1-1 1s-1-.46-1-1c0-.56.45-1 1-1s1 .44 1 1zm0 8c0 .54-.45 1-1 1s-1-.46-1-1c0-.57.45-1 1-1s1 .43 1 1zm0 7.98c0 .55-.45 1-1 1s-1-.45-1-1 .45-1 1-1 1 .45 1 1zm0 8c0 .55-.45 1-1 1s-1-.45-1-1c0-.56.45-1 1-1s1 .44 1 1zm0 8c0 .54-.45 1-1 1s-1-.46-1-1c0-.56.45-1 1-1s1 .44 1 1zm0 7.98c0 .55-.45 1-1 1s-1-.45-1-1 .45-1 1-1 1 .45 1 1zm0 8c0 .55-.45 1-1 1s-1-.45-1-1c0-.56.45-1 1-1s1 .44 1 1zm0 8c0 .54-.45 1-1 1s-1-.46-1-1c0-.56.45-1 1-1s1 .44 1 1zm0 7.98c0 .56-.45 1-1 1s-1-.44-1-1c0-.55.45-1 1-1s1 .45 1 1zm0 8c0 .55-.45 1-1 1s-1-.45-1-1 .45-1 1-1 1 .45 1 1zm0 8c0 .54-.45 1-1 1s-1-.46-1-1c0-.56.45-1 1-1s1 .44 1 1zm0 8c0 .54-.45 1-1 1s-1-.46-1-1c0-.57.45-1 1-1s1 .43 1 1zm0 7.98c0 .55-.45 1-1 1s-1-.45-1-1 .45-1 1-1 1 .45 1 1zm0 8c0 .55-.45 1-1 1s-1-.45-1-1c0-.56.45-1 1-1s1 .44 1 1zm0 8c0 .54-.45 1-1 1s-1-.46-1-1c0-.56.45-1 1-1s1 .44 1 1zm0 7.98c0 .55-.45 1-1 1s-1-.45-1-1 .45-1 1-1 1 .45 1 1zm0 8c0 .55-.45 1-1 1s-1-.45-1-1c0-.56.45-1 1-1s1 .44 1 1zm0 8c0 .54-.45 1-1 1s-1-.46-1-1c0-.56.45-1 1-1s1 .44 1 1zm0 7.98c0 .56-.45 1-1 1s-1-.44-1-1c0-.55.45-1 1-1s1 .45 1 1zm0 8c0 .55-.45 1-1 1s-1-.45-1-1 .45-1 1-1 1 .45 1 1zm0 8c0 .54-.45 1-1 1s-1-.46-1-1c0-.56.45-1 1-1s1 .44 1 1zm0 8c0 .54-.45 1-1 1s-1-.46-1-1c0-.57.45-1 1-1s1 .43 1 1zm0 7.98c0 .55-.45 1-1 1s-1-.45-1-1 .45-1 1-1 1 .45 1 1zm0 8c0 .55-.45 1-1 1s-1-.45-1-1c0-.56.45-1 1-1s1 .44 1 1zm0 8c0 .54-.45 1-1 1s-1-.46-1-1c0-.56.45-1 1-1s1 .44 1 1zm0 7.98c0 .55-.45 1-1 1s-1-.45-1-1 .45-1 1-1 1 .45 1 1zm0 8c0 .55-.45 1-1 1s-1-.45-1-1c0-.56.45-1 1-1s1 .44 1 1zm0 8c0 .54-.45 1-1 1s-1-.46-1-1c0-.56.45-1 1-1s1 .44 1 1zm0 7.98c0 .56-.45 1-1 1s-1-.44-1-1c0-.55.45-1 1-1s1 .45 1 1zm0 8c0 .55-.45 1-1 1s-1-.45-1-1 .45-1 1-1 1 .45 1 1zm0 8c0 .54-.45 1-1 1s-1-.46-1-1c0-.56.45-1 1-1s1 .44 1 1zm0 8c0 .54-.45 1-1 1s-1-.46-1-1c0-.57.45-1 1-1s1 .43 1 1zm0 7.98c0 .55-.45 1-1 1s-1-.45-1-1 .45-1 1-1 1 .45 1 1zm0 8c0 .55-.45 1-1 1s-1-.45-1-1c0-.56.45-1 1-1s1 .44 1 1zm0 8c0 .54-.45 1-1 1s-1-.46-1-1c0-.56.45-1 1-1s1 .44 1 1zm0 7.98c0 .55-.45 1-1 1s-1-.45-1-1 .45-1 1-1 1 .45 1 1zm0 8c0 .55-.45 1-1 1s-1-.45-1-1c0-.56.45-1 1-1s1 .44 1 1zm0 8c0 .54-.45 1-1 1s-1-.46-1-1c0-.56.45-1 1-1s1 .44 1 1zm0 7.98c0 .56-.45 1-1 1s-1-.44-1-1c0-.55.45-1 1-1s1 .45 1 1zm0 8c0 .55-.45 1-1 1s-1-.45-1-1 .45-1 1-1 1 .45 1 1zm0 8c0 .54-.45 1-1 1s-1-.46-1-1c0-.56.45-1 1-1s1 .44 1 1zm0 8c0 .54-.45 1-1 1s-1-.46-1-1c0-.57.45-1 1-1s1 .43 1 1zm0 7.98c0 .55-.45 1-1 1s-1-.45-1-1 .45-1 1-1 1 .45 1 1zm0 8c0 .55-.45 1-1 1s-1-.45-1-1c0-.56.45-1 1-1s1 .44 1 1zm0 8c0 .54-.45 1-1 1s-1-.46-1-1c0-.56.45-1 1-1s1 .44 1 1zm0 7.98c0 .55-.45 1-1 1s-1-.45-1-1 .45-1 1-1 1 .45 1 1zm0 8c0 .55-.45 1-1 1s-1-.45-1-1c0-.56.45-1 1-1s1 .44 1 1zm0 8c0 .54-.45 1-1 1s-1-.46-1-1c0-.56.45-1 1-1s1 .44 1 1zm0 7.98c0 .56-.45 1-1 1s-1-.44-1-1c0-.55.45-1 1-1s1 .45 1 1zm0 8c0 .55-.45 1-1 1s-1-.45-1-1c0-.56.45-1 1-1s1 .44 1 1zm0 8c0 .54-.45 1-1 1s-1-.46-1-1c0-.56.45-1 1-1s1 .44 1 1zm0 8c0 .54-.45 1-1 1s-1-.46-1-1c0-.57.45-1 1-1s1 .43 1 1zm0 7.98c0 .55-.45 1-1 1s-1-.45-1-1 .45-1 1-1 1 .45 1 1zm0 8c0 .55-.45 1-1 1s-1-.45-1-1c0-.56.45-1 1-1s1 .44 1 1zm0 8c0 .54-.45 1-1 1s-1-.46-1-1c0-.57.45-1 1-1s1 .43 1 1zm0 7.98c0 .55-.45 1-1 1s-1-.45-1-1 .45-1 1-1 1 .45 1 1zm0 8c0 .55-.45 1-1 1s-1-.45-1-1c0-.56.45-1 1-1s1 .44 1 1zm0 8c0 .54-.45 1-1 1s-1-.46-1-1c0-.56.45-1 1-1s1 .44 1 1zm0 7.98c0 .56-.45 1-1 1s-1-.44-1-1c0-.55.45-1 1-1s1 .45 1 1zm0 8c0 .55-.45 1-1 1s-1-.45-1-1c0-.56.45-1 1-1s1 .44 1 1zm0 8c0 .54-.45 1-1 1s-1-.46-1-1c0-.56.45-1 1-1s1 .44 1 1zm0 8c0 .54-.45 1-1 1s-1-.46-1-1c0-.57.45-1 1-1s1 .43 1 1zm0 7.98c0 .55-.45 1-1 1s-1-.45-1-1 .45-1 1-1 1 .45 1 1zm0 8c0 .55-.45 1-1 1s-1-.45-1-1c0-.56.45-1 1-1s1 .44 1 1zm0 8c0 .54-.45 1-1 1s-1-.46-1-1c0-.57.45-1 1-1s1 .43 1 1zm0 7.98c0 .55-.45 1-1 1s-1-.45-1-1 .45-1 1-1 1 .45 1 1z" fill="#5e5e5e"/><path d="M420 275.15v-1.03M420 1266.35v1.02" stroke="#5e5e5e" stroke-width="2" fill="none"/><path d="M100 260.12c0-3.3 2.7-6 6-6h228c3.3 0 6 2.7 6 6v48c0 3.32-2.7 6-6 6H106c-3.3 0-6-2.68-6-6z" stroke="#000" stroke-opacity="0" stroke-width="3" fill="#fff" fill-opacity="0"/><use xlink:href="#a" transform="matrix(1,0,0,1,105,259.12136336220635) translate(69.41358024691358 30.27777777777778)"/><path d="M540 260.12c0-3.3 2.7-6 6-6h228c3.3 0 6 2.7 6 6v48c0 3.32-2.7 6-6 6H546c-3.3 0-6-2.68-6-6z" stroke="#000" stroke-opacity="0" stroke-width="3" fill="#fff" fill-opacity="0"/><use xlink:href="#b" transform="matrix(1,0,0,1,545,259.12136336220635) translate(81.79012345679013 30.27777777777778)"/><path d="M1060 260.12c0-3.3 2.7-6 6-6h228c3.3 0 6 2.7 6 6v48c0 3.32-2.7 6-6 6h-228c-3.3 0-6-2.68-6-6z" stroke="#000" stroke-opacity="0" stroke-width="3" fill="#fff" fill-opacity="0"/><use xlink:href="#c" transform="matrix(1,0,0,1,1065,259.12136336220635) translate(66.29629629629629 30.27777777777778)"/><path d="M341 560h1119" stroke="#5e5e5e" stroke-width="2" fill="none"/><path d="M341.03 561H340v-2h1.03z" fill="#5e5e5e"/><path d="M1475.26 560l-14.26 4.64v-9.28z" stroke="#5e5e5e" stroke-width="2" fill="#5e5e5e"/><path d="M1060 606c0-3.3 2.7-6 6-6h228c3.3 0 6 2.7 6 6v48c0 3.3-2.7 6-6 6h-228c-3.3 0-6-2.7-6-6z" stroke="#000" stroke-opacity="0" stroke-width="3" fill="#fff" fill-opacity="0"/><use xlink:href="#d" transform="matrix(1,0,0,1,1065,605) translate(20.09259259259261 30.27777777777778)"/><path d="M1318.5 630h159" stroke="#5e5e5e" stroke-width="2" fill="none"/><path d="M1303.24 630l14.26-4.64v9.28z" stroke="#5e5e5e" stroke-width="2" fill="#5e5e5e"/><path d="M1478.5 631h-1.03v-2h1.03z" fill="#5e5e5e"/><path d="M100 606c0-3.3 2.7-6 6-6h228c3.3 0 6 2.7 6 6v48c0 3.3-2.7 6-6 6H106c-3.3 0-6-2.7-6-6z" stroke="#000" stroke-opacity="0" stroke-width="3" fill="#fff" fill-opacity="0"/><use xlink:href="#e" transform="matrix(1,0,0,1,105,605) translate(72.46913580246914 30.27777777777778)"/><path d="M1059 630H358.5" stroke="#5e5e5e" stroke-width="2" fill="none"/><path d="M1060 631h-1.03v-2h1.03z" fill="#5e5e5e"/><path d="M343.24 630l14.26-4.64v9.28z" stroke="#5e5e5e" stroke-width="2" fill="#5e5e5e"/><path d="M100 536c0-3.3 2.7-6 6-6h228c3.3 0 6 2.7 6 6v48c0 3.3-2.7 6-6 6H106c-3.3 0-6-2.7-6-6z" stroke="#000" stroke-opacity="0" stroke-width="3" fill="#fff" fill-opacity="0"/><use xlink:href="#f" transform="matrix(1,0,0,1,105,535) translate(71.91358024691358 30.27777777777778)"/><path d="M100 490c0-11.05 8.95-20 20-20s20 8.95 20 20-8.95 20-20 20-20-8.95-20-20z" stroke="#000" stroke-opacity="0" stroke-width="3" fill="#ef8d22"/><use xlink:href="#g" transform="matrix(1,0,0,1,105,475) translate(9.449444444444444 19.65277777777778)"/><path d="M140 466c0-3.3 2.7-6 6-6h228c3.3 0 6 2.7 6 6v48c0 3.3-2.7 6-6 6H146c-3.3 0-6-2.7-6-6z" stroke="#000" stroke-opacity="0" stroke-width="3" fill="#fff" fill-opacity="0"/><use xlink:href="#h" transform="matrix(1,0,0,1,145,465) translate(0 30.27777777777778)"/><use xlink:href="#i" transform="matrix(1,0,0,1,145,465) translate(90 30.27777777777778)"/><use xlink:href="#j" transform="matrix(1,0,0,1,145,465) translate(137.77777777777777 30.27777777777778)"/><path d="M341 875.83h180.5" stroke="#5e5e5e" stroke-width="2" fill="none"/><path d="M341.03 876.83H340v-2h1.03z" fill="#5e5e5e"/><path d="M536.76 875.83l-14.26 4.64v-9.27z" stroke="#5e5e5e" stroke-width="2" fill="#5e5e5e"/><path d="M1060 928.5c0-3.3 2.7-6 6-6h228c3.3 0 6 2.7 6 6v51.33c0 3.32-2.7 6-6 6h-228c-3.3 0-6-2.68-6-6z" stroke="#000" stroke-opacity="0" stroke-width="3" fill="#fff" fill-opacity="0"/><use xlink:href="#k" transform="matrix(1,0,0,1,1065,927.5) translate(93.45679012345678 17.77777777777778)"/><use xlink:href="#l" transform="matrix(1,0,0,1,1065,927.5) translate(7.561728395061749 44.44444444444444)"/><path d="M1318.5 954.17h159" stroke="#5e5e5e" stroke-width="2" fill="none"/><path d="M1303.24 954.17l14.26-4.64v9.27z" stroke="#5e5e5e" stroke-width="2" fill="#5e5e5e"/><path d="M1478.5 955.17h-1.03v-2h1.03z" fill="#5e5e5e"/><path d="M100 928.5c0-3.3 2.7-6 6-6h228c3.3 0 6 2.7 6 6v51.33c0 3.32-2.7 6-6 6H106c-3.3 0-6-2.68-6-6z" stroke="#000" stroke-opacity="0" stroke-width="3" fill="#fff" fill-opacity="0"/><use xlink:href="#m" transform="matrix(1,0,0,1,105,927.5) translate(50.925925925925924 17.77777777777778)"/><use xlink:href="#n" transform="matrix(1,0,0,1,105,927.5) translate(59.93827160493827 44.44444444444444)"/><path d="M1059 954.17H358.5" stroke="#5e5e5e" stroke-width="2" fill="none"/><path d="M1060 955.17h-1.03v-2h1.03z" fill="#5e5e5e"/><path d="M343.24 954.17l14.26-4.64v9.27z" stroke="#5e5e5e" stroke-width="2" fill="#5e5e5e"/><path d="M100 851.83c0-3.3 2.7-6 6-6h228c3.3 0 6 2.7 6 6v48c0 3.32-2.7 6-6 6H106c-3.3 0-6-2.68-6-6z" stroke="#000" stroke-opacity="0" stroke-width="3" fill="#fff" fill-opacity="0"/><use xlink:href="#o" transform="matrix(1,0,0,1,105,850.8333333333334) translate(16.574074074074076 30.27777777777778)"/><use xlink:href="#p" transform="matrix(1,0,0,1,105,850.8333333333334) translate(81.63580246913581 30.27777777777778)"/><use xlink:href="#q" transform="matrix(1,0,0,1,105,850.8333333333334) translate(134.5987654320988 30.27777777777778)"/><use xlink:href="#r" transform="matrix(1,0,0,1,105,850.8333333333334) translate(180.15432098765433 30.27777777777778)"/><path d="M100 805.83c0-11.04 8.95-20 20-20s20 8.96 20 20c0 11.05-8.95 20-20 20s-20-8.95-20-20z" stroke="#000" stroke-opacity="0" stroke-width="3" fill="#ef8d22"/><use xlink:href="#s" transform="matrix(1,0,0,1,105,790.8333333333334) translate(9.449444444444444 19.65277777777778)"/><path d="M140 780.17c0-3.32 2.7-6 6-6h228c3.3 0 6 2.68 6 6v51.33c0 3.3-2.7 6-6 6H146c-3.3 0-6-2.7-6-6z" stroke="#000" stroke-opacity="0" stroke-width="3" fill="#fff" fill-opacity="0"/><use xlink:href="#t" transform="matrix(1,0,0,1,145,779.1666666666667) translate(0 31.27777777777778)"/><use xlink:href="#i" transform="matrix(1,0,0,1,145,779.1666666666667) translate(68.88888888888889 31.27777777777778)"/><use xlink:href="#j" transform="matrix(1,0,0,1,145,779.1666666666667) translate(116.66666666666666 31.27777777777778)"/><path d="M1700 1168c0 6.63-26.86 12-60 12s-60-5.37-60-12v-96c0-6.63 26.86-12 60-12s60 5.37 60 12z" stroke="#5e5e5e" stroke-width="3" fill="#e5e5e5"/><path d="M1700 1072c0 6.63-26.86 12-60 12s-60-5.37-60-12" stroke="#5e5e5e" stroke-width="3" fill="none"/><use xlink:href="#u" transform="matrix(1,0,0,1,1585,1089) translate(14.413580246913583 47.34027777777778)"/><path d="M1480 516c0-3.3 2.7-6 6-6h148c3.3 0 6 2.7 6 6v148c0 3.3-2.7 6-6 6h-148c-3.3 0-6-2.7-6-6z" stroke="#5e5e5e" stroke-width="3" fill="#fff"/><use xlink:href="#v" transform="matrix(1,0,0,1,1485,515) translate(27.59259259259258 78.71527777777777)"/><path d="M1480 831.83c0-3.3 2.7-6 6-6h148c3.3 0 6 2.7 6 6v148c0 3.32-2.7 6-6 6h-148c-3.3 0-6-2.68-6-6z" stroke="#5e5e5e" stroke-width="3" fill="#fff"/><use xlink:href="#w" transform="matrix(1,0,0,1,1485,830.8333333333334) translate(35.61728395061728 78.71527777777777)"/><path d="M540 851.83c0-3.3 2.7-6 6-6h228c3.3 0 6 2.7 6 6v48c0 3.32-2.7 6-6 6H546c-3.3 0-6-2.68-6-6z" stroke="#000" stroke-opacity="0" stroke-width="3" fill="#fff" fill-opacity="0"/><use xlink:href="#o" transform="matrix(1,0,0,1,545,850.8333333333334) translate(42.46913580246914 30.27777777777778)"/><use xlink:href="#x" transform="matrix(1,0,0,1,545,850.8333333333334) translate(107.53086419753087 30.27777777777778)"/><path d="M781 875.83h679" stroke="#5e5e5e" stroke-width="2" fill="none"/><path d="M781.03 876.83H780v-2h1.03z" fill="#5e5e5e"/><path d="M1475.26 875.83l-14.26 4.64v-9.27z" stroke="#5e5e5e" stroke-width="2" fill="#5e5e5e"/><path d="M226.28 380.68H103.82v-5h122.46zm189.17 0H293v-5h122.45z" fill="#c92d39"/><path d="M122.68 370.15l-13.58 8.03 13.58 8.03-2.55 4.3-20.85-12.32 20.85-12.33zM420 378.18l-20.85 12.33-2.55-4.3 13.58-8.02-13.58-8.03 2.55-4.3z" fill="#c92d39"/><g><use xlink:href="#y" transform="matrix(1,0,0,1,226.28024691549217,359.51338559630824) translate(0 24.88888888888888)"/></g><path d="M995 380.74H424.54v-5H995zm639.4 0h-570.44v-5h570.45z" fill="#3aa6dd"/><path d="M443.4 370.2l-13.58 8.04 13.58 8.03-2.55 4.3L420 378.24l20.85-12.34zM1638.95 378.24l-20.85 12.33-2.55-4.3 13.58-8.03-13.58-8.03 2.55-4.3z" fill="#3aa6dd"/><g><use xlink:href="#z" transform="matrix(1,0,0,1,994.9942516782282,359.56935133510933) translate(0 24.88888888888888)"/></g><path d="M100 95.76h240v60H100z" fill="none"/><g><use xlink:href="#A" transform="matrix(1,0,0,1,105,100.76445661035119) translate(0 33.04444444444444)"/></g><defs><path fill="#999" d="M52-115c0 93 80 130 150 87l7-35h11l-1 55c-23 7-52 12-83 12C60 4 19-37 15-115c-5-113 97-141 201-114l1 51h-12l-5-30c-15-9-39-16-62-16-66 0-86 41-86 109" id="B"/><path fill="#999" d="M90-170c52 0 76 32 76 87 0 54-24 87-77 87-51 0-75-34-75-87 0-54 24-87 76-87zM89-10c39 0 46-35 46-73 0-39-7-73-46-73-39 1-44 34-44 73s6 72 44 73" id="C"/><path fill="#999" d="M125-118c4-37-41-34-68-26v132l23 4v8H8C5-13 21-9 28-12v-141c-7-3-23 1-20-12h47l2 13c31-23 98-29 98 31v109c7 3 23-1 20 12h-72v-8l22-4v-106" id="D"/><path fill="#999" d="M54-38c-1 25 24 26 44 20v12C71 10 25 9 25-35v-115H4c-2-14 14-10 21-15l18-38h11v38h38v15H54v112" id="E"/><path fill="#999" d="M57-145c16-10 35-24 60-25v45c-19 1-8-30-40-17l-20 6v124l29 4v8H7v-8l21-4v-141c-8-3-24 2-21-12h48" id="F"/><path fill="#999" d="M65-12l28 4v8H7v-8l28-4v-226l-28-4v-8h58v238" id="G"/><path fill="#999" d="M84-170c49 0 66 33 63 87H46c-8 60 38 80 95 63v10C128-2 108 4 88 4 34 4 14-29 14-84c-1-54 22-86 70-86zm33 73c12-57-57-82-69-24-1 7-2 15-2 24h71" id="H"/><g id="a"><use transform="matrix(0.06172839506172839,0,0,0.06172839506172839,0,0)" xlink:href="#B"/><use transform="matrix(0.06172839506172839,0,0,0.06172839506172839,14.814814814814813,0)" xlink:href="#C"/><use transform="matrix(0.06172839506172839,0,0,0.06172839506172839,25.925925925925924,0)" xlink:href="#D"/><use transform="matrix(0.06172839506172839,0,0,0.06172839506172839,37.03703703703704,0)" xlink:href="#E"/><use transform="matrix(0.06172839506172839,0,0,0.06172839506172839,43.20987654320988,0)" xlink:href="#F"/><use transform="matrix(0.06172839506172839,0,0,0.06172839506172839,50.55555555555556,0)" xlink:href="#C"/><use transform="matrix(0.06172839506172839,0,0,0.06172839506172839,61.66666666666667,0)" xlink:href="#G"/><use transform="matrix(0.06172839506172839,0,0,0.06172839506172839,67.8395061728395,0)" xlink:href="#G"/><use transform="matrix(0.06172839506172839,0,0,0.06172839506172839,74.01234567901234,0)" xlink:href="#H"/><use transform="matrix(0.06172839506172839,0,0,0.06172839506172839,83.82716049382715,0)" xlink:href="#F"/></g><path fill="#999" d="M178-68c0 79-95 82-154 59v-54h12c1 35 22 52 60 52 50 0 69-58 33-82-39-24-105-21-105-85 0-67 86-66 142-53v49h-12l-6-29c-31-27-121-7-89 42 28 43 119 24 119 101" id="I"/><path fill="#999" d="M164-154L98 4H85L17-153c-7-3-20 0-17-12h77v8l-26 4L99-38l46-115-26-4v-8h61v8" id="J"/><path fill="#999" d="M47-200c-23 0-25-39 0-38 13 0 18 7 20 19-1 11-8 19-20 19zM65-12l28 4v8H8v-8l28-4v-141l-24-4v-8h53v153" id="K"/><path fill="#999" d="M45-84c0 64 52 80 104 63 1 25-30 25-55 25-56 0-80-32-80-88 0-76 62-98 131-80v46h-10c-5-15-4-31-23-35-47-10-67 21-67 69" id="L"/><g id="b"><use transform="matrix(0.06172839506172839,0,0,0.06172839506172839,0,0)" xlink:href="#I"/><use transform="matrix(0.06172839506172839,0,0,0.06172839506172839,12.345679012345679,0)" xlink:href="#H"/><use transform="matrix(0.06172839506172839,0,0,0.06172839506172839,22.160493827160494,0)" xlink:href="#F"/><use transform="matrix(0.06172839506172839,0,0,0.06172839506172839,29.50617283950617,0)" xlink:href="#J"/><use transform="matrix(0.06172839506172839,0,0,0.06172839506172839,40.61728395061728,0)" xlink:href="#K"/><use transform="matrix(0.06172839506172839,0,0,0.06172839506172839,46.79012345679012,0)" xlink:href="#L"/><use transform="matrix(0.06172839506172839,0,0,0.06172839506172839,56.60493827160494,0)" xlink:href="#H"/></g><path fill="#999" d="M199-173c-1 36-21 56-49 65l64 94 26 5v9h-57l-66-103H75v89l35 5v9H13v-9l28-5v-208l-31-4v-10c80 4 190-20 189 63zM75-119c50 2 89-1 89-51 0-49-39-52-89-50v101" id="M"/><path fill="#999" d="M166-85c3 67-44 102-111 85l1 64 29 4v9H6v-9l21-4v-217c-7-3-22 1-19-12h46l1 9c11-8 26-14 45-14 47 2 64 36 66 85zM56-13c53 14 83-14 78-72 7-53-33-79-78-60v132" id="N"/><path fill="#999" d="M41-130c7 48 86 23 86 84 0 56-69 57-112 41v-40c20 0 9 29 31 31 35 19 77-26 41-50-27-18-72-13-72-59 0-50 58-52 100-41v36c-19 1-8-25-28-25-21-7-50-1-46 23" id="O"/><path fill="#999" d="M161-154L85 37C75 66 49 86 8 75V39c18-2 6 24 29 21 30-4 38-32 47-58L21-153c-7-3-20 0-17-12h77v8l-26 4 45 116 43-116-26-4v-8h62v8" id="P"/><g id="c"><use transform="matrix(0.06172839506172839,0,0,0.06172839506172839,0,0)" xlink:href="#M"/><use transform="matrix(0.06172839506172839,0,0,0.06172839506172839,14.814814814814813,0)" xlink:href="#H"/><use transform="matrix(0.06172839506172839,0,0,0.06172839506172839,24.629629629629626,0)" xlink:href="#N"/><use transform="matrix(0.06172839506172839,0,0,0.06172839506172839,35.74074074074073,0)" xlink:href="#C"/><use transform="matrix(0.06172839506172839,0,0,0.06172839506172839,46.85185185185185,0)" xlink:href="#O"/><use transform="matrix(0.06172839506172839,0,0,0.06172839506172839,55.49382716049382,0)" xlink:href="#K"/><use transform="matrix(0.06172839506172839,0,0,0.06172839506172839,61.666666666666664,0)" xlink:href="#E"/><use transform="matrix(0.06172839506172839,0,0,0.06172839506172839,67.8395061728395,0)" xlink:href="#C"/><use transform="matrix(0.06172839506172839,0,0,0.06172839506172839,78.95061728395062,0)" xlink:href="#F"/><use transform="matrix(0.06172839506172839,0,0,0.06172839506172839,86.2962962962963,0)" xlink:href="#P"/></g><path fill="#333" d="M199-173c-1 36-21 56-49 65l64 94 26 5v9h-57l-66-103H75v89l35 5v9H13v-9l28-5v-208l-31-4v-10c80 4 190-20 189 63zM75-119c50 2 89-1 89-51 0-49-39-52-89-50v101" id="Q"/><path fill="#333" d="M84-170c49 0 66 33 63 87H46c-8 60 38 80 95 63v10C128-2 108 4 88 4 34 4 14-29 14-84c-1-54 22-86 70-86zm33 73c12-57-57-82-69-24-1 7-2 15-2 24h71" id="R"/><path fill="#333" d="M41-130c7 48 86 23 86 84 0 56-69 57-112 41v-40c20 0 9 29 31 31 35 19 77-26 41-50-27-18-72-13-72-59 0-50 58-52 100-41v36c-19 1-8-25-28-25-21-7-50-1-46 23" id="S"/><path fill="#333" d="M166-85c3 67-44 102-111 85l1 64 29 4v9H6v-9l21-4v-217c-7-3-22 1-19-12h46l1 9c11-8 26-14 45-14 47 2 64 36 66 85zM56-13c53 14 83-14 78-72 7-53-33-79-78-60v132" id="T"/><path fill="#333" d="M90-170c52 0 76 32 76 87 0 54-24 87-77 87-51 0-75-34-75-87 0-54 24-87 76-87zM89-10c39 0 46-35 46-73 0-39-7-73-46-73-39 1-44 34-44 73s6 72 44 73" id="U"/><path fill="#333" d="M125-118c4-37-41-34-68-26v132l23 4v8H8C5-13 21-9 28-12v-141c-7-3-23 1-20-12h47l2 13c31-23 98-29 98 31v109c7 3 23-1 20 12h-72v-8l22-4v-106" id="V"/><path fill="#333" d="M52-115c0 93 80 130 150 87l7-35h11l-1 55c-23 7-52 12-83 12C60 4 19-37 15-115c-5-113 97-141 201-114l1 51h-12l-5-30c-15-9-39-16-62-16-66 0-86 41-86 109" id="W"/><path fill="#333" d="M164-154L98 4H85L17-153c-7-3-20 0-17-12h77v8l-26 4L99-38l46-115-26-4v-8h61v8" id="X"/><path fill="#333" d="M57-145c16-10 35-24 60-25v45c-19 1-8-30-40-17l-20 6v124l29 4v8H7v-8l21-4v-141c-8-3-24 2-21-12h48" id="Y"/><path fill="#333" d="M54-38c-1 25 24 26 44 20v12C71 10 25 9 25-35v-115H4c-2-14 14-10 21-15l18-38h11v38h38v15H54v112" id="Z"/><path fill="#333" d="M47-200c-23 0-25-39 0-38 13 0 18 7 20 19-1 11-8 19-20 19zM65-12l28 4v8H8v-8l28-4v-141l-24-4v-8h53v153" id="aa"/><path fill="#333" d="M53-14c58 12 82-15 82-73 0-52-35-77-82-58v131zM89 4C64 4 42-2 24-9v-229l-24-4v-8h53l-1 94c48-33 114-4 114 69 0 57-23 91-77 91" id="ab"/><path fill="#333" d="M65-12l28 4v8H7v-8l28-4v-226l-28-4v-8h58v238" id="ac"/><g id="d"><use transform="matrix(0.06172839506172839,0,0,0.06172839506172839,0,0)" xlink:href="#Q"/><use transform="matrix(0.06172839506172839,0,0,0.06172839506172839,14.814814814814813,0)" xlink:href="#R"/><use transform="matrix(0.06172839506172839,0,0,0.06172839506172839,24.629629629629626,0)" xlink:href="#S"/><use transform="matrix(0.06172839506172839,0,0,0.06172839506172839,33.2716049382716,0)" xlink:href="#T"/><use transform="matrix(0.06172839506172839,0,0,0.06172839506172839,44.38271604938271,0)" xlink:href="#U"/><use transform="matrix(0.06172839506172839,0,0,0.06172839506172839,55.49382716049382,0)" xlink:href="#V"/><use transform="matrix(0.06172839506172839,0,0,0.06172839506172839,66.60493827160494,0)" xlink:href="#S"/><use transform="matrix(0.06172839506172839,0,0,0.06172839506172839,75.24691358024691,0)" xlink:href="#R"/><use transform="matrix(0.06172839506172839,0,0,0.06172839506172839,85.06172839506172,0)" xlink:href="#W"/><use transform="matrix(0.06172839506172839,0,0,0.06172839506172839,99.87654320987653,0)" xlink:href="#U"/><use transform="matrix(0.06172839506172839,0,0,0.06172839506172839,110.98765432098764,0)" xlink:href="#V"/><use transform="matrix(0.06172839506172839,0,0,0.06172839506172839,122.09876543209876,0)" xlink:href="#X"/><use transform="matrix(0.06172839506172839,0,0,0.06172839506172839,133.20987654320987,0)" xlink:href="#R"/><use transform="matrix(0.06172839506172839,0,0,0.06172839506172839,143.02469135802468,0)" xlink:href="#Y"/><use transform="matrix(0.06172839506172839,0,0,0.06172839506172839,150.37037037037035,0)" xlink:href="#Z"/><use transform="matrix(0.06172839506172839,0,0,0.06172839506172839,156.5432098765432,0)" xlink:href="#aa"/><use transform="matrix(0.06172839506172839,0,0,0.06172839506172839,162.71604938271602,0)" xlink:href="#ab"/><use transform="matrix(0.06172839506172839,0,0,0.06172839506172839,173.82716049382714,0)" xlink:href="#ac"/><use transform="matrix(0.06172839506172839,0,0,0.06172839506172839,179.99999999999997,0)" xlink:href="#R"/></g><g id="e"><use transform="matrix(0.06172839506172839,0,0,0.06172839506172839,0,0)" xlink:href="#Q"/><use transform="matrix(0.06172839506172839,0,0,0.06172839506172839,14.814814814814813,0)" xlink:href="#R"/><use transform="matrix(0.06172839506172839,0,0,0.06172839506172839,24.629629629629626,0)" xlink:href="#S"/><use transform="matrix(0.06172839506172839,0,0,0.06172839506172839,33.2716049382716,0)" xlink:href="#T"/><use transform="matrix(0.06172839506172839,0,0,0.06172839506172839,44.38271604938271,0)" xlink:href="#U"/><use transform="matrix(0.06172839506172839,0,0,0.06172839506172839,55.49382716049382,0)" xlink:href="#V"/><use transform="matrix(0.06172839506172839,0,0,0.06172839506172839,66.60493827160494,0)" xlink:href="#S"/><use transform="matrix(0.06172839506172839,0,0,0.06172839506172839,75.24691358024691,0)" xlink:href="#R"/></g><path fill="#333" d="M108-235c-52 28-62 95-58 178 3 56 21 97 58 119v15C7 49-17-153 67-223c12-10 25-19 41-27v15" id="ad"/><path fill="#333" d="M13-82c-2-68 46-101 114-84 8-3 15-8 28-7V64l18 4v9h-70v-9l23-4c1-25-2-53 2-75-11 8-27 15-47 15-49-1-66-35-68-86zm113-70c-53-13-86 12-81 70-6 54 34 80 81 61v-131" id="ae"/><path fill="#333" d="M124-13C89 8 26 15 26-45v-108c-8-3-24 2-21-12h50v118c-3 37 42 32 69 25v-131l-25-4v-8h54v153c8 3 24-2 21 12h-48" id="af"/><path fill="#333" d="M12-250C113-222 137-19 52 49 40 59 28 69 12 77V62C56 37 70-16 70-87c0-70-13-123-58-148v-15" id="ag"/><g id="f"><use transform="matrix(0.06172839506172839,0,0,0.06172839506172839,0,0)" xlink:href="#ad"/><use transform="matrix(0.06172839506172839,0,0,0.06172839506172839,7.345679012345679,0)" xlink:href="#Q"/><use transform="matrix(0.06172839506172839,0,0,0.06172839506172839,22.160493827160494,0)" xlink:href="#R"/><use transform="matrix(0.06172839506172839,0,0,0.06172839506172839,31.975308641975307,0)" xlink:href="#ae"/><use transform="matrix(0.06172839506172839,0,0,0.06172839506172839,43.08641975308642,0)" xlink:href="#af"/><use transform="matrix(0.06172839506172839,0,0,0.06172839506172839,54.19753086419753,0)" xlink:href="#R"/><use transform="matrix(0.06172839506172839,0,0,0.06172839506172839,64.01234567901234,0)" xlink:href="#S"/><use transform="matrix(0.06172839506172839,0,0,0.06172839506172839,72.65432098765432,0)" xlink:href="#Z"/><use transform="matrix(0.06172839506172839,0,0,0.06172839506172839,78.82716049382715,0)" xlink:href="#ag"/></g><path fill="#fff" d="M110-14l48 5v9H32v-9l48-5v-192l-48 17v-10l69-39h9v224" id="ah"/><use transform="matrix(0.06172839506172839,0,0,0.06172839506172839,0,0)" xlink:href="#ah" id="g"/><path fill="#ef8d22" d="M133-266l-4 13c36 5 66 23 66 61 0 42-33 62-78 62-44 0-77-21-77-62 0-38 31-60 72-61 1-11-21-10-11-19zm-15 122c31 0 52-18 52-49s-22-50-52-50c-32 0-53 19-53 50 0 32 22 49 53 49zm106-154c23 2 49 7 67 11-8 51 3 118-9 170l-15 2c-6-42-1-95-3-142-1-22-21-25-44-32zM126 15c2-29-1-49-25-52l3-8c48 5 105 5 154 1l1-42-141 7-12-22c52 10 125 4 182 0l-10 55c4 0 7-1 10-1l-2 17c-45-3-93 1-136 2 2 18-11 48 14 46 46-4 100-1 140-9l-5 22-156 2c-12 1-17-7-17-18" id="ai"/><path fill="#ef8d22" d="M188-259c-11 43 3 109-10 155-10 2-18 4-16-11l-100 3-2 12-14 2c-6-34-3-80-3-119 0-20-12-23-28-27l3-9 52 7c-4 12-5 29-4 45l95-6c3-32-4-50-32-51l4-10zm-27 129v-61c-32-1-64 0-95 3l-2 63zm2 157c-22-1-53 11-53-14 1-38 5-75-31-76 5-18 37-1 56-2l-1 67c-2 21 31 9 48 12L294 4l-4 22zm42-325c22 2 48 7 67 11-5 30-2 68-3 103 22-1 47-4 68-8l-3 22h-65l-6 125-16 2-2-214c-3-21-21-25-44-32" id="aj"/><path fill="#ef8d22" d="M295-287c-11 55 3 132-10 191l-15 2c-4-24-3-56-3-84-25 1-51 4-72 7l-9-20c22 4 54 1 81 2v-68c-3-21-21-25-44-32l4-9c23 2 49 7 68 11zM83-78c67 6 144 2 208-4l-7 118-15 3c-3-33-3-68-3-104-57 3-121 0-172 9zM42-255c43 7 105 4 146-4l8 8c-12 28-30 55-50 76 25 22 50 36 80 54l-20 18-69-64c-28 32-68 56-106 74l-7-8c59-29 111-78 137-139l-105 7" id="ak"/><path fill="#ef8d22" d="M113-242c-1-8-6-10-15-13 4-14 23 0 36-1-2 5-5 8-5 14 38 5 67 25 67 64 0 43-34 64-78 64s-78-21-78-64c0-40 32-61 73-64zm5 113c32 0 53-18 53-51 0-31-21-51-53-51s-53 20-53 51c0 33 21 51 53 51zm147-128c-3-21-21-25-44-32l4-9c22 2 48 7 67 11-12 70 4 167-9 242l-16 2zM182 27c-22-1-53 11-53-14 1-39 5-75-31-76 5-18 37-1 56-2-2 21-2 44-2 67-1 20 31 9 49 12 37-3 79-3 111-10l-4 22" id="al"/><g id="h"><use transform="matrix(0.06172839506172839,0,0,0.06172839506172839,0,0)" xlink:href="#ai"/><use transform="matrix(0.06172839506172839,0,0,0.06172839506172839,21.11111111111111,0)" xlink:href="#aj"/><use transform="matrix(0.06172839506172839,0,0,0.06172839506172839,42.22222222222222,0)" xlink:href="#ak"/><use transform="matrix(0.06172839506172839,0,0,0.06172839506172839,63.33333333333333,0)" xlink:href="#al"/></g><path fill="#ef8d22" d="M167-254c-2-9-7-11-17-14 6-13 26-1 39-1-2 5-5 9-5 16 43 5 77 26 77 71 0 34-26 58-54 66l43 4c-2 24-10 58-6 80l88-8-4 23-251 4-53 4-10-24 109 5c-3-32 6-73-30-72 3-19 37-4 55-5-7 21-2 51-2 76l73-2c1-32 17-79-24-76l3-6c-58 11-113-14-113-69 0-46 35-69 82-72zm6 129c37 0 61-21 61-58s-25-59-61-59-61 23-61 59c0 35 24 58 61 58" id="am"/><path fill="#ef8d22" d="M43-231c47 4 107 6 147-5l9 8c-14 24-31 45-50 63 24 19 49 33 80 45l-20 18-69-54c-31 30-71 50-111 68l-7-7c58-28 105-69 140-122l-106 7zM209-76c-1-7-7-10-15-12 5-12 23 0 36 0-2 4-4 7-5 12 35 5 64 20 64 58 0 39-33 57-73 57-42 0-74-19-74-57 0-37 29-56 67-58zm6 101c28 0 49-16 49-45 0-28-20-45-49-45s-48 16-48 45 20 45 48 45zM76-278c28 9 65 6 97 1l-5 17-82 3zm219-9c-11 59 4 143-10 205l-15 2c-4-24-1-59-2-88-26 0-52 2-73 6l-9-20c22 4 55 1 82 2v-77c-3-21-21-25-44-32l3-9c23 2 49 7 68 11" id="an"/><g id="i"><use transform="matrix(0.06172839506172839,0,0,0.06172839506172839,0,0)" xlink:href="#am"/><use transform="matrix(0.06172839506172839,0,0,0.06172839506172839,21.11111111111111,0)" xlink:href="#an"/></g><path fill="#ef8d22" d="M166-85c3 67-44 102-111 85l1 64 29 4v9H6v-9l21-4v-217c-7-3-22 1-19-12h46l1 9c11-8 26-14 45-14 47 2 64 36 66 85zM56-13c53 14 83-14 78-72 7-53-33-79-78-60v132" id="ao"/><path fill="#ef8d22" d="M57-145c16-10 35-24 60-25v45c-19 1-8-30-40-17l-20 6v124l29 4v8H7v-8l21-4v-141c-8-3-24 2-21-12h48" id="ap"/><path fill="#ef8d22" d="M90-170c52 0 76 32 76 87 0 54-24 87-77 87-51 0-75-34-75-87 0-54 24-87 76-87zM89-10c39 0 46-35 46-73 0-39-7-73-46-73-39 1-44 34-44 73s6 72 44 73" id="aq"/><path fill="#ef8d22" d="M45-84c0 64 52 80 104 63 1 25-30 25-55 25-56 0-80-32-80-88 0-76 62-98 131-80v46h-10c-5-15-4-31-23-35-47-10-67 21-67 69" id="ar"/><path fill="#ef8d22" d="M84-170c49 0 66 33 63 87H46c-8 60 38 80 95 63v10C128-2 108 4 88 4 34 4 14-29 14-84c-1-54 22-86 70-86zm33 73c12-57-57-82-69-24-1 7-2 15-2 24h71" id="as"/><path fill="#ef8d22" d="M41-130c7 48 86 23 86 84 0 56-69 57-112 41v-40c20 0 9 29 31 31 35 19 77-26 41-50-27-18-72-13-72-59 0-50 58-52 100-41v36c-19 1-8-25-28-25-21-7-50-1-46 23" id="at"/><g id="j"><use transform="matrix(0.06172839506172839,0,0,0.06172839506172839,0,0)" xlink:href="#ao"/><use transform="matrix(0.06172839506172839,0,0,0.06172839506172839,11.11111111111111,0)" xlink:href="#ap"/><use transform="matrix(0.06172839506172839,0,0,0.06172839506172839,18.45679012345679,0)" xlink:href="#aq"/><use transform="matrix(0.06172839506172839,0,0,0.06172839506172839,29.567901234567902,0)" xlink:href="#ar"/><use transform="matrix(0.06172839506172839,0,0,0.06172839506172839,39.382716049382715,0)" xlink:href="#ar"/><use transform="matrix(0.06172839506172839,0,0,0.06172839506172839,49.19753086419753,0)" xlink:href="#as"/><use transform="matrix(0.06172839506172839,0,0,0.06172839506172839,59.01234567901235,0)" xlink:href="#at"/><use transform="matrix(0.06172839506172839,0,0,0.06172839506172839,67.65432098765433,0)" xlink:href="#at"/></g><path fill="#333" d="M75-108c48 3 76-12 76-58s-28-57-76-54v112zm111-58c-1 60-46 78-111 74v78l37 5v9H13v-9l28-5v-208l-31-4v-10c81 1 178-14 176 70" id="au"/><path fill="#333" d="M32-163c41-10 102-14 102 39v112c8 3 24-2 21 12h-45l-4-17C83 13 3 13 13-46c-2-50 45-50 92-51 4-36-5-70-42-56-6 2-12 4-16 6-4 7 0 23-15 20v-36zM42-47c0 41 41 33 63 22v-59c-34 1-63-1-63 37" id="av"/><path fill="#333" d="M141-152c28 39 5 97-54 97-9 0-20-2-27-3L49-35c29 22 130-14 124 52-4 45-38 57-88 61C21 83-8 26 45-2 33-6 22-15 21-31l28-31c-19-9-28-26-28-51-2-51 53-65 100-52l38-20 7 8zM85 64c35 0 61-11 61-42 0-35-57-17-89-21-9 8-16 19-17 34 0 25 19 29 45 29zM52-113c1 26 7 46 35 44 28-1 34-16 35-44 0-26-6-43-34-43s-36 17-36 43" id="aw"/><g id="k"><use transform="matrix(0.06172839506172839,0,0,0.06172839506172839,0,0)" xlink:href="#au"/><use transform="matrix(0.06172839506172839,0,0,0.06172839506172839,12.345679012345679,0)" xlink:href="#av"/><use transform="matrix(0.06172839506172839,0,0,0.06172839506172839,22.160493827160494,0)" xlink:href="#aw"/><use transform="matrix(0.06172839506172839,0,0,0.06172839506172839,33.27160493827161,0)" xlink:href="#R"/></g><path fill="#333" d="M18-115v-9l167-82v18L43-120l142 69v18" id="ax"/><path fill="#333" d="M18-33v-18l142-69-142-68v-18l168 82v9" id="ay"/><g id="l"><use transform="matrix(0.06172839506172839,0,0,0.06172839506172839,0,0)" xlink:href="#ax"/><use transform="matrix(0.06172839506172839,0,0,0.06172839506172839,12.530864197530864,0)" xlink:href="#Q"/><use transform="matrix(0.06172839506172839,0,0,0.06172839506172839,27.345679012345677,0)" xlink:href="#R"/><use transform="matrix(0.06172839506172839,0,0,0.06172839506172839,37.160493827160494,0)" xlink:href="#S"/><use transform="matrix(0.06172839506172839,0,0,0.06172839506172839,45.80246913580247,0)" xlink:href="#T"/><use transform="matrix(0.06172839506172839,0,0,0.06172839506172839,56.91358024691358,0)" xlink:href="#U"/><use transform="matrix(0.06172839506172839,0,0,0.06172839506172839,68.0246913580247,0)" xlink:href="#V"/><use transform="matrix(0.06172839506172839,0,0,0.06172839506172839,79.13580246913581,0)" xlink:href="#S"/><use transform="matrix(0.06172839506172839,0,0,0.06172839506172839,87.77777777777779,0)" xlink:href="#R"/><use transform="matrix(0.06172839506172839,0,0,0.06172839506172839,97.5925925925926,0)" xlink:href="#W"/><use transform="matrix(0.06172839506172839,0,0,0.06172839506172839,112.4074074074074,0)" xlink:href="#U"/><use transform="matrix(0.06172839506172839,0,0,0.06172839506172839,123.51851851851852,0)" xlink:href="#V"/><use transform="matrix(0.06172839506172839,0,0,0.06172839506172839,134.62962962962962,0)" xlink:href="#X"/><use transform="matrix(0.06172839506172839,0,0,0.06172839506172839,145.74074074074073,0)" xlink:href="#R"/><use transform="matrix(0.06172839506172839,0,0,0.06172839506172839,155.55555555555554,0)" xlink:href="#Y"/><use transform="matrix(0.06172839506172839,0,0,0.06172839506172839,162.9012345679012,0)" xlink:href="#Z"/><use transform="matrix(0.06172839506172839,0,0,0.06172839506172839,169.07407407407405,0)" xlink:href="#aa"/><use transform="matrix(0.06172839506172839,0,0,0.06172839506172839,175.24691358024688,0)" xlink:href="#ab"/><use transform="matrix(0.06172839506172839,0,0,0.06172839506172839,186.358024691358,0)" xlink:href="#ac"/><use transform="matrix(0.06172839506172839,0,0,0.06172839506172839,192.53086419753083,0)" xlink:href="#R"/><use transform="matrix(0.06172839506172839,0,0,0.06172839506172839,202.34567901234564,0)" xlink:href="#ay"/></g><g id="m"><use transform="matrix(0.06172839506172839,0,0,0.06172839506172839,0,0)" xlink:href="#au"/><use transform="matrix(0.06172839506172839,0,0,0.06172839506172839,12.345679012345679,0)" xlink:href="#av"/><use transform="matrix(0.06172839506172839,0,0,0.06172839506172839,22.160493827160494,0)" xlink:href="#aw"/><use transform="matrix(0.06172839506172839,0,0,0.06172839506172839,33.27160493827161,0)" xlink:href="#R"/><use transform="matrix(0.06172839506172839,0,0,0.06172839506172839,43.086419753086425,0)" xlink:href="#Q"/><use transform="matrix(0.06172839506172839,0,0,0.06172839506172839,57.90123456790124,0)" xlink:href="#R"/><use transform="matrix(0.06172839506172839,0,0,0.06172839506172839,67.71604938271605,0)" xlink:href="#S"/><use transform="matrix(0.06172839506172839,0,0,0.06172839506172839,76.35802469135803,0)" xlink:href="#T"/><use transform="matrix(0.06172839506172839,0,0,0.06172839506172839,87.46913580246914,0)" xlink:href="#U"/><use transform="matrix(0.06172839506172839,0,0,0.06172839506172839,98.58024691358025,0)" xlink:href="#V"/><use transform="matrix(0.06172839506172839,0,0,0.06172839506172839,109.69135802469137,0)" xlink:href="#S"/><use transform="matrix(0.06172839506172839,0,0,0.06172839506172839,118.33333333333334,0)" xlink:href="#R"/></g><g id="n"><use transform="matrix(0.06172839506172839,0,0,0.06172839506172839,0,0)" xlink:href="#ax"/><use transform="matrix(0.06172839506172839,0,0,0.06172839506172839,12.530864197530864,0)" xlink:href="#Q"/><use transform="matrix(0.06172839506172839,0,0,0.06172839506172839,27.345679012345677,0)" xlink:href="#R"/><use transform="matrix(0.06172839506172839,0,0,0.06172839506172839,37.160493827160494,0)" xlink:href="#S"/><use transform="matrix(0.06172839506172839,0,0,0.06172839506172839,45.80246913580247,0)" xlink:href="#T"/><use transform="matrix(0.06172839506172839,0,0,0.06172839506172839,56.91358024691358,0)" xlink:href="#U"/><use transform="matrix(0.06172839506172839,0,0,0.06172839506172839,68.0246913580247,0)" xlink:href="#V"/><use transform="matrix(0.06172839506172839,0,0,0.06172839506172839,79.13580246913581,0)" xlink:href="#S"/><use transform="matrix(0.06172839506172839,0,0,0.06172839506172839,87.77777777777779,0)" xlink:href="#R"/><use transform="matrix(0.06172839506172839,0,0,0.06172839506172839,97.5925925925926,0)" xlink:href="#ay"/></g><path fill="#333" d="M130-224c-62 0-78 43-78 106 0 64 16 108 78 108s78-44 78-108c0-63-16-106-78-106zM145 3C61 9 15-34 15-118c0-80 37-120 115-120 77 0 115 42 115 120 1 59-21 95-62 112 19 19 30 53 71 46v12c-30 12-67 2-84-19" id="az"/><path fill="#333" d="M161-154L85 37C75 66 49 86 8 75V39c18-2 6 24 29 21 30-4 38-32 47-58L21-153c-7-3-20 0-17-12h77v8l-26 4 45 116 43-116-26-4v-8h62v8" id="aA"/><path fill="#333" d="M42-37c43 0 23 74-4 81-7 4-14 8-24 11V42c17-5 29-14 31-30C42-2 20 1 21-18c0-12 9-19 21-19" id="aB"/><g id="o"><use transform="matrix(0.06172839506172839,0,0,0.06172839506172839,0,0)" xlink:href="#az"/><use transform="matrix(0.06172839506172839,0,0,0.06172839506172839,15.987654320987653,0)" xlink:href="#af"/><use transform="matrix(0.06172839506172839,0,0,0.06172839506172839,27.098765432098766,0)" xlink:href="#R"/><use transform="matrix(0.06172839506172839,0,0,0.06172839506172839,36.91358024691358,0)" xlink:href="#Y"/><use transform="matrix(0.06172839506172839,0,0,0.06172839506172839,44.25925925925926,0)" xlink:href="#aA"/><use transform="matrix(0.06172839506172839,0,0,0.06172839506172839,53.95061728395062,0)" xlink:href="#aB"/></g><g id="p"><use transform="matrix(0.06172839506172839,0,0,0.06172839506172839,0,0)" xlink:href="#T"/><use transform="matrix(0.06172839506172839,0,0,0.06172839506172839,11.11111111111111,0)" xlink:href="#av"/><use transform="matrix(0.06172839506172839,0,0,0.06172839506172839,20.925925925925924,0)" xlink:href="#aw"/><use transform="matrix(0.06172839506172839,0,0,0.06172839506172839,32.03703703703704,0)" xlink:href="#R"/><use transform="matrix(0.06172839506172839,0,0,0.06172839506172839,41.851851851851855,0)" xlink:href="#aB"/></g><path fill="#333" d="M10 0v-8l90-143c-23 2-54-4-70 6-5 8 1 26-14 24v-44h122v8L47-14c29-2 65 3 86-8l9-35h8l-5 57H10" id="aC"/><g id="q"><use transform="matrix(0.06172839506172839,0,0,0.06172839506172839,0,0)" xlink:href="#S"/><use transform="matrix(0.06172839506172839,0,0,0.06172839506172839,8.641975308641975,0)" xlink:href="#aa"/><use transform="matrix(0.06172839506172839,0,0,0.06172839506172839,14.814814814814813,0)" xlink:href="#aC"/><use transform="matrix(0.06172839506172839,0,0,0.06172839506172839,24.629629629629626,0)" xlink:href="#R"/><use transform="matrix(0.06172839506172839,0,0,0.06172839506172839,34.44444444444444,0)" xlink:href="#aB"/></g><g id="r"><use transform="matrix(0.06172839506172839,0,0,0.06172839506172839,0,0)" xlink:href="#S"/><use transform="matrix(0.06172839506172839,0,0,0.06172839506172839,8.641975308641975,0)" xlink:href="#U"/><use transform="matrix(0.06172839506172839,0,0,0.06172839506172839,19.753086419753085,0)" xlink:href="#Y"/><use transform="matrix(0.06172839506172839,0,0,0.06172839506172839,27.098765432098766,0)" xlink:href="#Z"/></g><path fill="#fff" d="M24-231c66-21 156 2 128 81C132-92 78-66 39-27h121V0H16v-26l59-54c26-25 47-47 47-97 0-48-47-57-81-37l-6 29H24v-46" id="aD"/><use transform="matrix(0.06172839506172839,0,0,0.06172839506172839,0,0)" xlink:href="#aD" id="s"/><path fill="#ef8d22" d="M195-84C141-70 93-66 38-60L25-83c15 3 36 5 53 2-9-35 11-96-30-100l2-10c16 0 29 2 44 4-5 33 3 70 4 105 12 1 24-3 35-3-3-37 23-102-21-104 2-18 36-4 51-3-9 29-7 70-10 105l42-7v10zm82-173c-1-22-16-25-39-32l4-9 62 11c-9 102 4 223-9 327l-15 2-3-76v-223zm-97 44l-143 7-10-22c50 8 106 3 158-5zm63-59c-9 93 4 207-10 300l-13 2-3-176c-16 1-31 3-46 7l-10-21c14 5 38 2 56 2-4-49 18-114-36-115l4-9c23 1 39 6 58 10" id="aE"/><path fill="#ef8d22" d="M130-238l-5 15c39 6 72 28 72 70 0 45-35 70-83 70-47 0-82-24-82-70 0-44 33-67 77-70-1-9-6-11-15-14 4-13 24-1 36-1zM115-99c35 0 57-22 57-55s-22-56-57-56c-34 0-57 22-57 56s23 55 57 55zm152-158c-1-22-21-25-44-32l4-9c22 2 48 7 67 11-13 98 6 225-10 327l-14 2c-7-92 1-201-3-299" id="aF"/><path fill="#ef8d22" d="M43-257c44 7 108 4 148-5l8 8c-10 29-29 53-49 75 25 22 49 35 81 52l-20 18-70-62c-30 30-69 59-109 75l-7-7c61-29 112-79 140-140l-108 7zm182-41c23 2 49 7 67 11-9 60 4 139-9 200l-15 2c-6-52 0-115-3-172-1-22-21-25-44-32zM208-79c-1-8-7-9-15-12 4-14 23-1 35-1l-4 13c35 5 64 22 64 59 0 39-32 59-74 59-41 0-73-19-73-59 0-38 30-56 67-59zm6 103c29 0 48-17 48-46 0-30-20-47-48-47-29 0-49 18-49 47 0 28 19 46 49 46" id="aG"/><g id="t"><use transform="matrix(0.06172839506172839,0,0,0.06172839506172839,0,0)" xlink:href="#aE"/><use transform="matrix(0.06172839506172839,0,0,0.06172839506172839,21.11111111111111,0)" xlink:href="#aF"/><use transform="matrix(0.06172839506172839,0,0,0.06172839506172839,42.22222222222222,0)" xlink:href="#aG"/></g><path fill="#333" d="M75-17c87 13 134-18 134-103 0-78-51-106-134-100v203zm171-102C246 5 139 7 10 0v-9l31-5v-208l-31-4v-10h107c82 0 129 35 129 117" id="aH"/><g id="u"><use transform="matrix(0.06172839506172839,0,0,0.06172839506172839,0,0)" xlink:href="#aH"/><use transform="matrix(0.06172839506172839,0,0,0.06172839506172839,15.987654320987653,0)" xlink:href="#av"/><use transform="matrix(0.06172839506172839,0,0,0.06172839506172839,25.80246913580247,0)" xlink:href="#Z"/><use transform="matrix(0.06172839506172839,0,0,0.06172839506172839,31.975308641975307,0)" xlink:href="#av"/><use transform="matrix(0.06172839506172839,0,0,0.06172839506172839,41.79012345679012,0)" xlink:href="#ab"/><use transform="matrix(0.06172839506172839,0,0,0.06172839506172839,52.90123456790123,0)" xlink:href="#av"/><use transform="matrix(0.06172839506172839,0,0,0.06172839506172839,62.716049382716044,0)" xlink:href="#S"/><use transform="matrix(0.06172839506172839,0,0,0.06172839506172839,71.35802469135803,0)" xlink:href="#R"/></g><path fill="#333" d="M103-236c-39-15-35 32-34 71h44v15H69v136l35 6v8H15v-8l25-6v-136H11v-9l29-7c-6-59 23-100 80-84v36c-15 2-12-14-17-22" id="aI"/><path fill="#333" d="M13-81c0-71 46-101 114-85l-1-72-28-4v-8h57v238c8 3 24-2 21 12h-47l-2-12C80 23 13-1 13-81zm77-74c-37 1-44 33-45 74 0 38 9 66 45 66 14 0 27-3 36-7v-130c-10-1-24-3-36-3" id="aJ"/><path fill="#333" d="M75-131c50 2 93 3 93-48 0-46-48-41-93-41v89zm0 115c55 4 111 6 111-51 0-53-58-48-111-48v99zm148-52C223 24 102-3 10 0v-9l31-5v-208l-31-4v-10c77 6 193-24 194 56 0 33-20 48-48 54 36 5 67 20 67 58" id="aK"/><path fill="#333" d="M77-14l30 5v9H13v-9l30-5v-208l-30-4v-10h94v10l-30 4v208" id="aL"/><g id="v"><use transform="matrix(0.06172839506172839,0,0,0.06172839506172839,0,0)" xlink:href="#aI"/><use transform="matrix(0.06172839506172839,0,0,0.06172839506172839,7.345679012345679,0)" xlink:href="#aa"/><use transform="matrix(0.06172839506172839,0,0,0.06172839506172839,13.518518518518519,0)" xlink:href="#V"/><use transform="matrix(0.06172839506172839,0,0,0.06172839506172839,24.62962962962963,0)" xlink:href="#aJ"/><use transform="matrix(0.06172839506172839,0,0,0.06172839506172839,35.74074074074074,0)" xlink:href="#aK"/><use transform="matrix(0.06172839506172839,0,0,0.06172839506172839,50.55555555555556,0)" xlink:href="#aA"/><use transform="matrix(0.06172839506172839,0,0,0.06172839506172839,61.66666666666667,0)" xlink:href="#aL"/><use transform="matrix(0.06172839506172839,0,0,0.06172839506172839,69.01234567901236,0)" xlink:href="#aJ"/><use transform="matrix(0.06172839506172839,0,0,0.06172839506172839,80.12345679012347,0)" xlink:href="#ad"/><use transform="matrix(0.06172839506172839,0,0,0.06172839506172839,87.46913580246915,0)" xlink:href="#ag"/></g><path fill="#333" d="M81-9v9H4v-9l26-5 81-224h33l83 224 30 5v9h-99v-9l31-5-23-68H73L49-14zm38-203L78-98h82" id="aM"/><g id="w"><use transform="matrix(0.06172839506172839,0,0,0.06172839506172839,0,0)" xlink:href="#aI"/><use transform="matrix(0.06172839506172839,0,0,0.06172839506172839,7.345679012345679,0)" xlink:href="#aa"/><use transform="matrix(0.06172839506172839,0,0,0.06172839506172839,13.518518518518519,0)" xlink:href="#V"/><use transform="matrix(0.06172839506172839,0,0,0.06172839506172839,24.62962962962963,0)" xlink:href="#aJ"/><use transform="matrix(0.06172839506172839,0,0,0.06172839506172839,35.74074074074074,0)" xlink:href="#aM"/><use transform="matrix(0.06172839506172839,0,0,0.06172839506172839,51.72839506172839,0)" xlink:href="#ac"/><use transform="matrix(0.06172839506172839,0,0,0.06172839506172839,57.901234567901234,0)" xlink:href="#ac"/><use transform="matrix(0.06172839506172839,0,0,0.06172839506172839,64.07407407407408,0)" xlink:href="#ad"/><use transform="matrix(0.06172839506172839,0,0,0.06172839506172839,71.41975308641976,0)" xlink:href="#ag"/></g><g id="x"><use transform="matrix(0.06172839506172839,0,0,0.06172839506172839,0,0)" xlink:href="#au"/><use transform="matrix(0.06172839506172839,0,0,0.06172839506172839,12.345679012345679,0)" xlink:href="#av"/><use transform="matrix(0.06172839506172839,0,0,0.06172839506172839,22.160493827160494,0)" xlink:href="#aw"/><use transform="matrix(0.06172839506172839,0,0,0.06172839506172839,33.27160493827161,0)" xlink:href="#R"/><use transform="matrix(0.06172839506172839,0,0,0.06172839506172839,43.086419753086425,0)" xlink:href="#av"/><use transform="matrix(0.06172839506172839,0,0,0.06172839506172839,52.90123456790124,0)" xlink:href="#ab"/><use transform="matrix(0.06172839506172839,0,0,0.06172839506172839,64.01234567901236,0)" xlink:href="#ac"/><use transform="matrix(0.06172839506172839,0,0,0.06172839506172839,70.18518518518519,0)" xlink:href="#R"/></g><path fill="#c92d39" d="M92-20c74 11 92-29 92-98 0-66-23-103-92-98v196zm150-99C242 9 136 6 6 0v-13l31-5v-200l-31-5v-13h112c81 0 124 34 124 117" id="aN"/><path fill="#c92d39" d="M54 0v-13l38-5v-199l-66 3-4 44H6v-66h229v66h-17l-4-44c-17-2-44-3-67-3v199l38 5V0H54" id="aO"/><path fill="#c92d39" d="M140-221c-55 0-64 47-64 103S8-14 140-14c56 0 64-48 64-104s-9-103-64-103zm0 225C61 4 18-36 18-118c0-81 41-120 122-120 80 0 122 39 122 120C262-36 219 4 140 4" id="aP"/><g id="y"><use transform="matrix(0.0864197530864197,0,0,0.0864197530864197,0,0)" xlink:href="#aN"/><use transform="matrix(0.0864197530864197,0,0,0.0864197530864197,22.382716049382704,0)" xlink:href="#aO"/><use transform="matrix(0.0864197530864197,0,0,0.0864197530864197,42.5185185185185,0)" xlink:href="#aP"/></g><path fill="#3aa6dd" d="M92-20c74 11 92-29 92-98 0-66-23-103-92-98v196zm150-99C242 9 136 6 6 0v-13l31-5v-200l-31-5v-13h112c81 0 124 34 124 117" id="aQ"/><path fill="#3aa6dd" d="M75-13V0H4v-13l17-5 84-220h51l83 220 18 5V0H152v-13l28-5-23-61H67L45-18zm38-189L74-98h76" id="aR"/><path fill="#3aa6dd" d="M140-221c-55 0-64 47-64 103S8-14 140-14c56 0 64-48 64-104s-9-103-64-103zm0 225C61 4 18-36 18-118c0-81 41-120 122-120 80 0 122 39 122 120C262-36 219 4 140 4" id="aS"/><g id="z"><use transform="matrix(0.0864197530864197,0,0,0.0864197530864197,0,0)" xlink:href="#aQ"/><use transform="matrix(0.0864197530864197,0,0,0.0864197530864197,22.382716049382704,0)" xlink:href="#aR"/><use transform="matrix(0.0864197530864197,0,0,0.0864197530864197,44.76543209876541,0)" xlink:href="#aS"/></g><path d="M183-50C134-44 46-31 8-47c2-9-5-28 5-28h26v-145c-11-1-27 4-29-6 1-10-4-28 6-28h155c9 0 3 18 5 28-1 10-18 5-28 6v142c12 0 30-9 36-1 0 9 7 25-1 29zm-11-85c-9-1-8-34 0-34h36v-105c3-8 34-9 39 0V40c-3 8-34 9-39 0v-175h-36zM312 53c-3 11-25 3-36 5-3 0-5-2-5-5v-333c3-11 25-3 36-5 3 0 5 2 5 5V53zM76-75l34-1v-144H76v145" id="aT"/><path d="M297 52c-3 11-25 3-37 5-3 0-5-2-5-5v-332c3-11 25-3 37-5 3 0 5 2 5 5V52zM119-63c66-7 65-157 0-163-67 5-65 158 0 163zm88-82c0 66-23 119-88 119-63 0-89-52-89-119 0-66 25-118 89-118s88 52 88 118" id="aU"/><path d="M131-111c-27 31-57 63-97 83-8-7-28-24-16-33 54-38 110-86 125-160-28-5-68 0-100-2-6-3-8-31 1-35h117c19 0 33 9 29 29-7 33-20 60-36 86 20 28 49 53 74 76 0 11-12 16-17 24-33 1-56-47-80-68zm124-169c4-10 25-3 37-5 3 0 5 2 5 5V52c-3 11-25 3-37 5-3 1-5-3-5-5v-332" id="aV"/><path d="M133-143c-9-1-8-35 0-34h70v-97c3-10 24-3 35-5 3 0 4 2 4 5V40c-2 11-23 3-34 5-3 0-5-2-5-5v-183h-70zm138-137c4-10 24-3 36-5 3 0 5 2 5 5V53c-4 9-35 8-41 0v-333zM174-85c11 1 15 30 5 32-34 9-76 12-121 11-16 0-27-11-27-27v-186c3-8 36-8 41 0v172c1 11 16 5 27 7 24-2 55-3 75-9" id="aW"/><path d="M193-140c-9-1-8-34 0-33h63v-26h-63c-10 0-3-19-5-29 11-10 47-1 68-4 2-17-5-43 4-53 12 2 33-5 37 5v234c-5 9-25 2-37 4-3 0-4-1-4-4v-94h-63zm-91-127c0-14 25-3 37-5 3 0 5 1 5 5 0 29-3 55-10 77 15 33 40 61 72 77 8 10-10 20-12 28-18 11-35-15-48-25s-22-23-30-37c-19 31-43 60-76 76-8-8-31-23-18-32 51-35 77-84 80-164zM303 17c9 3 8 34 0 34H115C67 55 95-16 88-53c3-8 36-9 41 0v64c1 4 1 7 7 6h167" id="aX"/><path d="M35-132v-50h50v50H35zM35 0v-49h50V0H35" id="aY"/><path d="M176-78C186 10 51 31 16-35c-5-9-9-19-11-32l52-8c4 21 12 37 35 38 23 0 32-16 32-40v-130H75v-41h101v170" id="aZ"/><path d="M24-248c93 1 206-16 204 79-1 75-69 88-152 82V0H24v-248zm52 121c47 0 100 7 100-41 0-47-54-39-100-39v80" id="ba"/><path d="M199 0l-22-63H83L61 0H9l90-248h61L250 0h-51zm-33-102l-36-108c-10 38-24 72-36 108h72" id="bb"/><g id="A"><use transform="matrix(0.11172839506172831,0,0,0.11172839506172831,0,0)" xlink:href="#aT"/><use transform="matrix(0.11172839506172831,0,0,0.11172839506172831,37.764197530864166,0)" xlink:href="#aU"/><use transform="matrix(0.11172839506172831,0,0,0.11172839506172831,75.52839506172833,0)" xlink:href="#aV"/><use transform="matrix(0.11172839506172831,0,0,0.11172839506172831,113.2925925925925,0)" xlink:href="#aW"/><use transform="matrix(0.11172839506172831,0,0,0.11172839506172831,151.05679012345666,0)" xlink:href="#aU"/><use transform="matrix(0.11172839506172831,0,0,0.11172839506172831,188.82098765432085,0)" xlink:href="#aX"/><use transform="matrix(0.11172839506172831,0,0,0.11172839506172831,226.58518518518503,0)" xlink:href="#aY"/><use transform="matrix(0.11172839506172831,0,0,0.11172839506172831,239.88086419753068,0)" xlink:href="#aZ"/><use transform="matrix(0.11172839506172831,0,0,0.11172839506172831,262.22654320987635,0)" xlink:href="#ba"/><use transform="matrix(0.11172839506172831,0,0,0.11172839506172831,286.0246913580245,0)" xlink:href="#bb"/></g></defs></g></svg>